<?xml version="1.0" encoding="UTF-8" standalone="no"?>
<!-- Created with Inkscape (http://www.inkscape.org/) -->

<svg
   width="700"
   height="300"
   viewBox="0 0 185.20833 79.375002"
   version="1.1"
   id="svg5"
   inkscape:version="1.1 (c68e22c387, 2021-05-23)"
   sodipodi:docname="404.svg"
   xmlns:inkscape="http://www.inkscape.org/namespaces/inkscape"
   xmlns:sodipodi="http://sodipodi.sourceforge.net/DTD/sodipodi-0.dtd"
   xmlns="http://www.w3.org/2000/svg"
   xmlns:svg="http://www.w3.org/2000/svg">
  <sodipodi:namedview
     id="namedview7"
     pagecolor="#ffffff"
     bordercolor="#666666"
     borderopacity="1.0"
     inkscape:pageshadow="2"
     inkscape:pageopacity="0"
     inkscape:pagecheckerboard="0"
     inkscape:document-units="mm"
     showgrid="false"
     units="px"
     inkscape:zoom="1.4289282"
     inkscape:cx="425.84365"
     inkscape:cy="196.30098"
     inkscape:window-width="1920"
     inkscape:window-height="991"
     inkscape:window-x="-9"
     inkscape:window-y="-9"
     inkscape:window-maximized="1"
     inkscape:current-layer="layer1" />
  <defs
     id="defs2">
    <rect
       x="325.41874"
       y="51.787068"
       width="329.61769"
       height="195.95107"
       id="rect3812" />
  </defs>
  <g
     inkscape:label="Livello 1"
     inkscape:groupmode="layer"
     id="layer1">
    <path
       d="M 6.850998,65.716627 36.989993,13.658373 67.128986,65.716627 Z m 9.45269,-5.479822 H 57.676296 L 36.989993,24.618003 Z m 20.686305,-2.739904 q 1.164462,0 1.952189,-0.787748 0.787748,-0.787746 0.787748,-1.952177 0,-1.164462 -0.787748,-1.952189 -0.787747,-0.787747 -1.952189,-0.787747 -1.164462,0 -1.952188,0.787747 -0.787749,0.787748 -0.787749,1.952189 0,1.164461 0.787749,1.952177 0.787748,0.787748 1.952188,0.787748 z m -2.739904,-8.219726 h 5.479808 V 35.577632 h -5.479808 z m 2.739904,-6.849766 z"
       id="path17"
       style="stroke-width:0.00661458" />
    <text
       xml:space="preserve"
       transform="matrix(0.42019531,0,0,0.45097084,-72.625824,-25.804462)"
       id="text3810"
       style="font-style:normal;font-weight:normal;font-size:170.667px;line-height:1.25;font-family:sans-serif;white-space:pre;shape-inside:url(#rect3812);fill:#000000;fill-opacity:1;stroke:none;stroke-width:0.607804"><tspan
         x="325.41797"
         y="205.51617"
         id="tspan3817"><tspan
           style="font-family:Arial;-inkscape-font-specification:Arial"
           id="tspan3815">404</tspan></tspan></text>
    <path
       style="fill:#ffffff;stroke:#ffffff;stroke-width:6;stroke-linecap:round;stroke-linejoin:round;stroke-dashoffset:10.0157;paint-order:stroke fill markers;stroke-opacity:0.9261539"
       d="m 27.152055,247.21326 c 0.160263,-0.28868 25.578696,-44.22574 56.485407,-97.63791 l 56.194018,-97.113052 1.91141,3.336467 c 1.05127,1.835057 26.48259,45.772115 56.51405,97.637915 l 54.60264,94.30145 H 139.86012 c -62.149697,0 -112.868328,-0.23619 -112.708065,-0.52487 z M 217.99556,227.47545 c 0,-1.03098 -77.3355,-133.934271 -78.07658,-134.176857 -0.5105,-0.167107 -77.618987,131.531227 -78.567635,134.190507 -0.143708,0.40285 29.883744,0.65392 78.205475,0.65392 49.29961,0 78.43874,-0.24799 78.43874,-0.66757 z"
       id="path864"
       transform="scale(0.26458333)" />
    <path
       style="fill:#ffffff;stroke:#ffffff;stroke-width:6;stroke-linecap:round;stroke-linejoin:round;stroke-dashoffset:10.0157;stroke-opacity:0.926154;paint-order:stroke fill markers"
       d="m 129.81758,160.60989 v -25.54362 h 10.14747 10.14746 v 25.54362 25.54362 h -10.14746 -10.14747 z"
       id="path3494"
       transform="scale(0.26458333)" />
    <path
       style="fill:#ffffff;stroke:#ffffff;stroke-width:6;stroke-linecap:round;stroke-linejoin:round;stroke-dashoffset:10.0157;stroke-opacity:0.926154;paint-order:stroke fill markers"
       d="m 135.46593,215.72004 c -9.48211,-4.83505 -5.9786,-18.7018 4.68438,-18.5406 5.3792,0.0813 9.37901,4.13785 9.37901,9.512 0,7.75698 -7.32935,12.46237 -14.06339,9.0286 z"
       id="path3533"
       transform="scale(0.26458333)" />
    <path
       style="fill:#ffffff;stroke:#ffffff;stroke-width:6;stroke-linecap:round;stroke-linejoin:round;stroke-dashoffset:10.0157;stroke-opacity:0.926154;paint-order:stroke fill markers"
       d="m 329.96759,227.4432 v -25.19371 h -41.98951 -41.98951 v -11.15878 -11.15878 l 44.26394,-67.55148 44.26395,-67.551471 9.26918,-0.02008 9.26919,-0.02008 0.17845,67.358171 0.17846,67.35818 13.12172,0.1904 13.12172,0.1904 v 11.16632 11.16632 l -13.12172,0.19039 -13.12172,0.19041 -0.1838,25.01875 -0.18379,25.01876 h -11.53828 -11.53828 z m 0,-94.96628 c 0,-26.42086 -0.26569,-47.084089 -0.60066,-46.713339 -0.9925,1.098531 -59.63165,92.000929 -60.04845,93.087089 -0.33124,0.86321 3.90486,1.00441 30.13184,1.00441 h 30.51727 z"
       id="path3572"
       transform="scale(0.26458333)" />
    <path
       style="fill:#ffffff;stroke:#ffffff;stroke-width:6;stroke-linecap:round;stroke-linejoin:round;stroke-dashoffset:10.0157;stroke-opacity:0.926154;paint-order:stroke fill markers"
       d="m 458.88195,255.38026 c -31.53494,-4.86294 -49.0994,-31.70752 -53.30836,-81.47369 -0.91386,-10.8053 -0.91386,-37.48265 0,-48.28794 3.86112,-45.653341 19.83169,-72.485445 47.56324,-79.910878 6.37954,-1.708193 22.39892,-1.728038 28.69284,-0.03554 6.2987,1.693782 14.94706,6.084073 19.93706,10.120943 14.65354,11.854601 24.68441,36.271849 27.64835,67.301855 0.98949,10.35919 0.97958,42.16056 -0.0165,52.91103 -2.57356,27.77578 -8.717,46.22123 -20.11507,60.39468 -7.2518,9.01758 -17.20719,15.52856 -27.45384,17.95526 -5.8411,1.38333 -17.302,1.89489 -22.94772,1.02428 z m 13.92943,-20.24268 c 6.49459,-1.21208 11.90015,-4.38217 17.26135,-10.12289 10.76476,-11.5268 15.13216,-27.90018 16.15248,-60.55576 1.1687,-37.40448 -1.91915,-65.798591 -8.58642,-78.955816 -7.63071,-15.058477 -21.29047,-22.984286 -35.43275,-20.559153 -11.51383,1.974403 -20.24641,9.81808 -25.68388,23.069473 -2.17597,5.302938 -4.8827,16.749436 -6.16192,26.058076 -1.52566,11.10204 -2.14986,46.75605 -1.06592,60.8848 2.08553,27.18386 5.98599,39.76439 15.48068,49.9312 8.31709,8.90586 17.41553,12.23224 28.03638,10.25007 z"
       id="path3611"
       transform="scale(0.26458333)" />
    <path
       style="fill:#ffffff;stroke:#ffffff;stroke-width:6;stroke-linecap:round;stroke-linejoin:round;stroke-dashoffset:10.0157;stroke-opacity:0.926154;paint-order:stroke fill markers"
       d="m 631.59227,227.4432 v -25.19371 h -41.98952 -41.98951 v -11.29336 -11.29335 l 44.26394,-67.43426 44.26395,-67.434265 9.27268,-0.0027 9.27269,-0.0027 v 67.533135 67.53313 h 13.29668 13.29668 v 11.19721 11.1972 H 667.98318 654.6865 v 25.19371 25.19371 h -11.54712 -11.54711 z m 0,-94.96628 c 0,-28.35409 -0.25477,-47.111217 -0.63447,-46.713339 -1.2338,1.292848 -60.25033,92.840069 -60.25033,93.461109 0,0.36431 12.84914,0.63039 30.4424,0.63039 h 30.4424 z"
       id="path3650"
       transform="scale(0.26458333)" />
  </g>
</svg>
